PathFileType	4	(X/Y/Z)	/Users/niels/Desktop/University/Third Semester/Perception and Action/Exam/Gymnastics Motion Tracking/Code for Gym Tracking/Analyzed Data/Webcam_Backflip/id6_5_baseline_Sports2D/id6_5_baseline_Sports2D_px_person00.trc
DataRate	CameraRate	NumFrames	NumMarkers	Units	OrigDataRate	OrigDataStartFrame	OrigNumFrames
29.8125	29.8125	9	22	m	29.8125	60	160
Frame#	Time	Hip			RHip			RKnee			RAnkle			RBigToe			RSmallToe			RHeel			LHip			LKnee			LAnkle			LBigToe			LSmallToe			LHeel			Neck			Head			Nose			RShoulder			RElbow			RWrist			LShoulder			LElbow			LWrist		
		X1	Y1	Z1	X2	Y2	Z2	X3	Y3	Z3	X4	Y4	Z4	X5	Y5	Z5	X6	Y6	Z6	X7	Y7	Z7	X8	Y8	Z8	X9	Y9	Z9	X10	Y10	Z10	X11	Y11	Z11	X12	Y12	Z12	X13	Y13	Z13	X14	Y14	Z14	X15	Y15	Z15	X16	Y16	Z16	X17	Y17	Z17	X18	Y18	Z18	X19	Y19	Z19	X20	Y20	Z20	X21	Y21	Z21	X22	Y22	Z22
60	2.012578616352201	0.9290657458208085	-0.4688374223602057	0.0	0.9330715453149765	-0.47138591842642213	0.0	1.0009758023041195	-0.4252508186847948	0.0	1.0161134715709417	-0.5133326639541165	0.0	1.0372457778459243	-0.5455952816371976	0.0	1.0370549549834363	-0.5457065485654097	0.0	1.013437005060933	-0.5295200024445135	0.0	0.9266621798273819	-0.46551807812725254	0.0	0.9925341625331467	-0.42767082178076604	0.0	1.0123803629464092	-0.5096035212726144	0.0	1.0357611618855018	-0.540090931537278	0.0	1.0300323504185762	-0.5407290173257004	0.0	1.0131709435986045	-0.5281489036058805	0.0	0.8295745894665612	-0.38544412205915385	0.0	0.7752312600587509	-0.3400089940817683	0.0	0.8180194560581814	-0.34378834850401124	0.0	0.8407568094552194	-0.3892196268342029	0.0	0.9029797789204672	-0.3572975205059123	0.0	0.9359618013598288	-0.3066142977740571	0.0	0.8316377588215088	-0.3902995918803481	0.0	0.8875619410522495	-0.35778070246332855	0.0	0.9068672801749436	-0.31071799593218596	0.0
61	2.0461215932914043	0.9322235124835647	-0.4512522863443849	0.0	0.9370140934914587	-0.4534759136300886	0.0	0.9800834816901637	-0.3808876396580196	0.0	1.014734645559855	-0.4558339054770902	0.0	1.040302227178616	-0.47561128916094003	0.0	1.0421539907725008	-0.47720131117420916	0.0	1.0159375206917396	-0.47050248158886204	0.0	0.9302187050549648	-0.4488115624779961	0.0	0.973694504955542	-0.38527055594924436	0.0	1.0105366244539256	-0.45217712973036955	0.0	1.0365953769676493	-0.4713428405641021	0.0	1.0321085554167955	-0.472126261807008	0.0	1.0172902517445213	-0.46856466481600345	0.0	0.822474576288004	-0.3898089252572171	0.0	0.7630974270419517	-0.3595650105747909	0.0	0.8039683423200408	-0.35562087106409085	0.0	0.8358154836412076	-0.3916896462656347	0.0	0.9007828769420597	-0.3606990028149594	0.0	0.9305666283709447	-0.31135754597678494	0.0	0.8275420994509438	-0.3944228037952933	0.0	0.885411652401033	-0.36171595774218607	0.0	0.9079121714053591	-0.31535640669879444	0.0
62	2.079664570230608	0.9368943953602463	-0.43281438573775227	0.0	0.94200926659596	-0.43405327528807314	0.0	0.9521338212801786	-0.34833286626886356	0.0	1.0050078373487883	-0.4035753829603018	0.0	1.0320246412023808	-0.40856747166181445	0.0	1.035832256516972	-0.4112976076058687	0.0	1.0099784233360418	-0.41519322827849936	0.0	0.9350314921871283	-0.43157990510785316	0.0	0.9488298447734836	-0.3541355772155645	0.0	1.000463393177282	-0.4003701499843564	0.0	1.0275056862658942	-0.40771932774926184	0.0	1.0238961293062496	-0.40755120269251877	0.0	1.012711342243817	-0.41274139097580165	0.0	0.8206178082796641	-0.4011104190265399	0.0	0.7590004981193371	-0.38943726457295347	0.0	0.7949469618220868	-0.37741288354277763	0.0	0.8354889973440939	-0.399645166758616	0.0	0.8983341127833703	-0.3646956810318116	0.0	0.9196138073196237	-0.3163908583815863	0.0	0.8276383249041445	-0.40461348209087694	0.0	0.8836040314312016	-0.36753229624079164	0.0	0.9038296412739282	-0.32095606473939015	0.0
63	2.113207547169811	0.9411063712315973	-0.4132961791462758	0.0	0.9457641634490039	-0.41315365027133816	0.0	0.9207949887590402	-0.32971333597072766	0.0	0.9862625418036588	-0.35944737164772617	0.0	1.0102010523385374	-0.3506392694659819	0.0	1.01553660474543	-0.3536653848276399	0.0	0.994040196803527	-0.36653527609369596	0.0	0.9394981214579564	-0.41315519806530465	0.0	0.9217340627811473	-0.3360374578266827	0.0	0.9819226689217597	-0.3570872616910946	0.0	1.0070262292365388	-0.35550358938788074	0.0	1.0038636999147845	-0.35267741856397794	0.0	0.9979132842743162	-0.3635656294853705	0.0	0.8250697470407805	-0.41733616242507626	0.0	0.7656946342234949	-0.4259026177084362	0.0	0.7936934293985699	-0.40679262218394563	0.0	0.840082075057376	-0.4116731786778312	0.0	0.8946671650475035	-0.3688287439047585	0.0	0.9028484576787132	-0.32242119777370654	0.0	0.8328006872798016	-0.4188058131785257	0.0	0.8821085271328429	-0.37402670887706674	0.0	0.8938699934131343	-0.32777199724469475	0.0
64	2.1467505241090143	0.9426460958038111	-0.3936700612792673	0.0	0.94605266820828	-0.3922009088720674	0.0	0.889881142273726	-0.32527445790107795	0.0	0.9587093728548216	-0.32625491174153654	0.0	0.9748359900730588	-0.30774800380706996	0.0	0.9809801328807957	-0.3101920017016815	0.0	0.9677438825221267	-0.32801249184609077	0.0	0.9416727856015235	-0.39422769917956385	0.0	0.8959294580987504	-0.3309241379487264	0.0	0.9557289392879212	-0.324899631725943	0.0	0.9750900948464299	-0.31913956024250556	0.0	0.9722985732102071	-0.31229976715939634	0.0	0.9728326100728691	-0.3243207674220404	0.0	0.83631540349843	-0.43559180945905546	0.0	0.784561551311259	-0.46356194091038877	0.0	0.8024398221458902	-0.43954432123801224	0.0	0.8496978877924664	-0.42570236360375596	0.0	0.8895971902028396	-0.3735362815792524	0.0	0.8821463791604878	-0.33159203058333603	0.0	0.8437163869298949	-0.43441206718052944	0.0	0.8810595767450581	-0.3807370564160532	0.0	0.8796742599836203	-0.3374726462779446	0.0
65	2.180293501048218	0.9398238616687646	-0.3757209590197058	0.0	0.9414265791920189	-0.37340319428054985	0.0	0.862642000187484	-0.33353532535412694	0.0	0.923486145403232	-0.3066152135343054	0.0	0.9284098904032395	-0.28426628769536816	0.0	0.9345731482487337	-0.28563928897984997	0.0	0.9320307815912278	-0.30320339510750843	0.0	0.9398704762232658	-0.3766989798060527	0.0	0.8737023142347058	-0.33724684502993096	0.0	0.9236271126015929	-0.3061785446480207	0.0	0.9337496655249519	-0.3007825913915325	0.0	0.9317857194942497	-0.28995502424117314	0.0	0.9391226162431412	-0.29860913060801136	0.0	0.8537966049839196	-0.45281278868494484	0.0	0.8145184919130425	-0.496834857992964	0.0	0.8215441244777251	-0.47062426666765333	0.0	0.863933334921631	-0.43938411746655165	0.0	0.8837687209793302	-0.3799986850396332	0.0	0.8610464824639631	-0.346514040479418	0.0	0.8602730764561289	-0.4488802912415041	0.0	0.8806391999612111	-0.38832593946658284	0.0	0.8645295462928348	-0.35240161289953575	0.0
66	2.213836477987421	0.9320386136262496	-0.36141917640656535	0.0	0.9315474266593541	-0.3589890154725757	0.0	0.8413515531020823	-0.35170408814431064	0.0	0.8828762989524861	-0.30265912395892164	0.0	0.8756589962678891	-0.28267479968028636	0.0	0.881118424727532	-0.28277277452311406	0.0	0.8893614860126519	-0.29499072242118973	0.0	0.9333596270846559	-0.36289827699170285	0.0	0.8558871415197249	-0.35266104020382316	0.0	0.8883774010142442	-0.3031348644186013	0.0	0.8875679838610225	-0.3010616757898378	0.0	0.8872512595242903	-0.28797023384117193	0.0	0.9002049793786013	-0.2898983920024062	0.0	0.8756968464644418	-0.46654270586649976	0.0	0.8520155192774227	-0.52160083843735	0.0	0.8489222685046044	-0.4958010330534288	0.0	0.8815565662048754	-0.4507598398060689	0.0	0.8783769428554349	-0.38981284155786167	0.0	0.843722405071305	-0.3689896013078579	0.0	0.8810529354412738	-0.46009799110254995	0.0	0.8812194534443168	-0.3982387091124196	0.0	0.8522996696934256	-0.3743939767540749	0.0
67	2.2473794549266244	0.9198348714245743	-0.3525561360456139	0.0	0.9171500156725512	-0.3507422237204146	0.0	0.8270276586570912	-0.37638119028812944	0.0	0.8404370939072611	-0.31556102983830897	0.0	0.8229122964941495	-0.30379446356123113	0.0	0.8269235850436182	-0.3022512347072758	0.0	0.8436969053405994	-0.3049567098394263	0.0	0.9225450993879287	-0.3548225706470308	0.0	0.842379474710075	-0.37467709811765904	0.0	0.8537799728519422	-0.3173187761676431	0.0	0.8429638154876529	-0.3202708860985289	0.0	0.845006841681188	-0.30746086349014623	0.0	0.8607823884453604	-0.300779163344378	0.0	0.899222264597689	-0.47540374166098726	0.0	0.8923193190714288	-0.5360751057672117	0.0	0.8807755429883173	-0.5127651191240729	0.0	0.900521353646619	-0.458691799049494	0.0	0.8748069353261021	-0.40436074178766984	0.0	0.8339003946021345	-0.3992337898359958	0.0	0.90346051992087	-0.46675759260793925	0.0	0.8832598664848026	-0.4117790106045049	0.0	0.8463382798515428	-0.4038344711279515	0.0
68	2.280922431865828	0.9045541969738181	-0.3505957549167436	0.0	0.8997815179628401	-0.34979886755758605	0.0	0.8190938328639353	-0.40449923236724017	0.0	0.80069270383107	-0.34505268665777683	0.0	0.7772569879468487	-0.34632296181814665	0.0	0.7789825885456062	-0.34262029089267837	0.0	0.8000322659973215	-0.33314272553806507	0.0	0.9085662721491093	-0.35372349589249974	0.0	0.8326981691734511	-0.4010498135724202	0.0	0.8240315740247	-0.3487222330964208	0.0	0.8067367405609772	-0.35825354485907984	0.0	0.811180580655285	-0.3475709859938344	0.0	0.8257139913367757	-0.332000537543532	0.0	0.9213049519779098	-0.4793195894983532	0.0	0.9310685820360544	-0.5406146210812451	0.0	0.9128016655438924	-0.5212567396820529	0.0	0.9183719444662795	-0.46305801513786204	0.0	0.8744316797429191	-0.42411139186342384	0.0	0.8342018987955373	-0.4357909366589928	0.0	0.9244884425127246	-0.46880631569932923	0.0	0.8870880407358296	-0.4294002213790802	0.0	0.8488240004161268	-0.4391969839080563	0.0
